<svg width="27" height="55" viewBox="0 0 27 55" fill="none" xmlns="http://www.w3.org/2000/svg">
    <path
        d="M2.17102 9.29311C-0.0570053 8.42773 -0.0570053 5.27298 2.17102 4.40761L4.69611 3.42599L13.5016 0V6.85197V13.7039L4.69611 10.278L2.17102 9.29311Z"
        fill="#083C5C"></path>
    <path
        d="M24.8287 18.1101C27.0567 18.9754 27.0567 22.1302 24.8287 22.9956L22.3036 23.9772L13.498 27.4032V20.5512V13.6992L22.3036 17.1252L24.8287 18.1101Z"
        fill="#3F2A56"></path>
    <path
        d="M2.17102 36.6994C-0.0570053 35.834 -0.0570053 32.6792 2.17102 31.8139L4.69611 30.8322L13.5016 27.4062V34.2582V41.1102L4.69611 37.6842L2.17102 36.6994Z"
        fill="#083C5C"></path>
    <path
        d="M24.8287 45.5124C27.0567 46.3778 27.0567 49.5325 24.8287 50.3979L22.3036 51.3795L13.498 54.8055V47.9535V41.1016L22.3036 44.5275L24.8287 45.5124Z"
        fill="#3F2A56"></path>
    <path
        d="M4.69644 10.2775L2.17135 9.29593C1.05734 8.86324 0.501953 7.85902 0.501953 6.85156V34.2562C0.501953 33.252 1.05734 32.2478 2.17135 31.8119L4.69644 30.8302L13.502 27.4043V13.7035L4.69644 10.2775Z"
        fill="#4297CB"></path>
    <path
        d="M24.8287 22.9945L22.3036 23.9761L13.498 27.4021V41.1028L22.3036 44.5288L24.8287 45.5104C25.9427 45.9431 26.4981 46.9473 26.4981 47.9515V20.5469C26.5013 21.5576 25.9427 22.5618 24.8287 22.9945Z"
        fill="#7E4C9E"></path>
</svg>